<svg xmlns:dc="http://purl.org/dc/elements/1.1/" xmlns:cc="http://creativecommons.org/ns#" xmlns:rdf="http://www.w3.org/1999/02/22-rdf-syntax-ns#" xmlns:svg="http://www.w3.org/2000/svg" xmlns="http://www.w3.org/2000/svg" id="svg70" viewBox="0 0 1024 768" height="768px" width="1024px" version="1.1">
  <style>svg { background-color: rgb(254, 68, 68); }</style>
  <metadata id="metadata76">
    <rdf:rdf>
      <cc:work rdf:about="">
        <dc:format>image/svg+xml</dc:format>
        <dc:type rdf:resource="http://purl.org/dc/dcmitype/StillImage"></dc:type>
      </cc:work>
    </rdf:rdf>
  </metadata>
  <defs id="defs74"></defs>
  <g id="logo-group">
    <g id="title" style="font-style:normal;font-weight:700;font-size:72px;line-height:1;font-family:Phenomena;font-variant-ligatures:none;text-align:center;text-anchor:middle" aria-label="meme-maker">
      <path id="path78" style="font-style: normal; font-weight: 700; font-size: 72px; line-height: 1; font-family: Phenomena; font-variant-ligatures: none; text-align: center; text-anchor: middle; fill: rgb(255, 255, 255);" d="m 411.36706,83.208 c -6.912,0 -11.52,4.896 -11.52,11.736 v 12.384 c 0,6.84 4.608,11.736 11.016,11.736 2.232,0 4.248,-0.936 5.76,-2.52 v 7.128 c 0,3.528 -1.944,5.616 -5.256,5.616 -3.096,0 -5.04,-2.088 -5.256,-5.688 -0.072,-0.72 -0.432,-1.008 -1.008,-1.008 h -4.248 c -0.648,0 -1.008,0.36 -0.936,1.008 0.288,7.056 4.752,11.592 11.448,11.592 6.984,0 11.448,-4.608 11.448,-11.736 V 94.944 c 0,-6.84 -4.608,-11.736 -11.448,-11.736 z m 0,30.024 c -3.312,0 -5.328,-2.304 -5.328,-5.688 V 94.728 c 0,-3.384 2.016,-5.616 5.328,-5.616 3.312,0 5.256,2.232 5.256,5.616 v 12.816 c 0,3.384 -1.944,5.688 -5.256,5.688 z" transform="translate(0 203.54094509871283) translate(252 143.2525457910486) scale(1.9537129337449353) translate(-399.84706 -83.208)"></path>
      <path id="path80" style="font-style: normal; font-weight: 700; font-size: 72px; line-height: 1; font-family: Phenomena; font-variant-ligatures: none; text-align: center; text-anchor: middle; fill: rgb(255, 255, 255);" d="m 433.06381,79.464 c 2.088,0 3.744,-1.728 3.744,-3.672 0,-2.16 -1.656,-3.744 -3.744,-3.744 -2.16,0 -3.672,1.584 -3.672,3.744 0,2.088 1.512,3.672 3.672,3.672 z m -2.088,40.536 h 4.176 c 0.648,0 1.008,-0.36 1.008,-1.008 V 84.936 c 0,-0.576 -0.36,-0.936 -1.008,-0.936 h -4.176 c -0.648,0 -1.008,0.36 -1.008,0.936 v 34.056 c 0,0.648 0.36,1.008 1.008,1.008 z" transform="translate(0 203.54094509871283) translate(319.4905248679854 121.44910945045511) scale(1.9537129337449353) translate(-429.39181 -72.048)"></path>
      <path id="path82" style="font-style: normal; font-weight: 700; font-size: 72px; line-height: 1; font-family: Phenomena; font-variant-ligatures: none; text-align: center; text-anchor: middle; fill: rgb(255, 255, 255);" d="m 459.22569,84 h -7.128 v -1.872 c 0,-4.752 2.304,-6.984 6.12,-6.984 0.576,0 0.936,-0.36 0.936,-1.008 V 70.32 c 0,-0.648 -0.36,-1.008 -0.936,-1.008 -7.344,0 -12.312,4.896 -12.312,13.176 V 84 h -4.104 c -0.576,0 -0.936,0.36 -0.936,0.936 v 3.744 c 0,0.576 0.36,0.936 0.936,0.936 h 4.104 v 29.376 c 0,0.648 0.36,1.008 1.008,1.008 h 4.176 c 0.576,0 1.008,-0.36 1.008,-1.008 V 89.616 h 7.128 c 0.576,0 0.936,-0.36 0.936,-0.936 v -3.744 c 0,-0.576 -0.36,-0.936 -0.936,-0.936 z" transform="translate(0 203.54094509871283) translate(351.6757572929473 116.10375086372896) scale(1.9537129337449353) translate(-440.86569 -69.312)"></path>
      <path id="path84" style="font-style: normal; font-weight: 700; font-size: 72px; line-height: 1; font-family: Phenomena; font-variant-ligatures: none; text-align: center; text-anchor: middle; fill: rgb(254, 238, 201);" d="m 460.50819,104.232 h 16.056 c 0.648,0 1.008,-0.36 1.008,-0.936 v -3.6 c 0,-0.576 -0.36,-1.008 -1.008,-1.008 h -16.056 c -0.576,0 -0.936,0.432 -0.936,1.008 v 3.6 c 0,0.576 0.36,0.936 0.936,0.936 z" transform="translate(0 203.54094509871283) translate(397.99145295677164 173.49602200542017) scale(1.9537129337449353) translate(-459.57219 -98.688)"></path>
      <path id="path86" style="font-style: normal; font-weight: 700; font-size: 72px; line-height: 1; font-family: Phenomena; font-variant-ligatures: none; text-align: center; text-anchor: middle; fill: rgb(254, 238, 201);" d="m 508.40956,83.208 c -3.384,0 -6.12,1.8 -7.776,4.392 -1.656,-2.592 -4.464,-4.392 -7.776,-4.392 -6.552,0 -10.872,4.896 -10.872,11.736 v 24.048 c 0,0.648 0.36,1.008 1.008,1.008 h 4.104 c 0.648,0 1.008,-0.36 1.008,-1.008 V 94.728 c 0,-3.384 1.728,-5.616 4.752,-5.616 3.024,0 4.68,2.232 4.68,5.616 v 24.264 c 0,0.648 0.36,1.008 1.008,1.008 h 4.176 c 0.576,0 0.936,-0.36 0.936,-1.008 V 94.728 c 0,-3.384 1.728,-5.616 4.752,-5.616 3.024,0 4.68,2.232 4.68,5.616 v 24.264 c 0,0.648 0.36,1.008 1.008,1.008 h 4.176 c 0.576,0 0.936,-0.36 0.936,-1.008 V 94.944 c 0,-6.84 -4.248,-11.736 -10.8,-11.736 z" transform="translate(0 203.54094509871283) translate(451.54930848330713 143.2525457910486) scale(1.9537129337449353) translate(-481.98556 -83.208)"></path>
      <path id="path88" style="font-style: normal; font-weight: 700; font-size: 72px; line-height: 1; font-family: Phenomena; font-variant-ligatures: none; text-align: center; text-anchor: middle; fill: rgb(252, 223, 154);" d="m 536.58519,120.72 c 6.912,0 11.232,-4.752 11.232,-11.376 V 94.872 c 0,-6.768 -4.392,-11.664 -11.232,-11.664 -6.408,0 -10.656,4.464 -11.088,10.728 0,0.576 0.36,1.008 0.936,1.008 h 4.176 c 0.648,0 0.936,-0.216 1.008,-0.864 0.216,-2.952 1.872,-4.968 4.896,-4.968 3.24,0 5.184,2.232 5.184,5.472 v 3.96 h -5.4 c -6.768,0 -11.376,4.608 -11.376,10.584 0,6.768 4.68,11.592 11.664,11.592 z m -0.072,-5.904 c -3.384,0 -5.4,-2.232 -5.4,-5.688 0,-2.808 2.016,-5.04 5.4,-5.04 h 5.184 v 5.256 c 0,3.312 -1.872,5.472 -5.184,5.472 z" transform="translate(0 203.54094509871283) translate(545.2017688015188 143.2525457910486) scale(1.9537129337449353) translate(-524.92119 -83.208)"></path>
      <path id="path90" style="font-style: normal; font-weight: 700; font-size: 72px; line-height: 1; font-family: Phenomena; font-variant-ligatures: none; text-align: center; text-anchor: middle; fill: rgb(252, 223, 154);" d="m 570.11356,99.768 7.128,-14.616 c 0.288,-0.72 -0.144,-1.152 -0.864,-1.152 h -4.464 c -0.504,0 -0.864,0.216 -1.152,0.72 l -6.552,13.824 h -3.456 V 70.536 c 0,-0.576 -0.36,-0.936 -1.008,-0.936 h -4.176 c -0.648,0 -1.008,0.36 -1.008,0.936 v 48.456 c 0,0.648 0.36,1.008 1.008,1.008 h 4.176 c 0.648,0 1.008,-0.36 1.008,-1.008 v -14.616 h 4.32 c 3.24,0 5.472,2.088 5.472,5.328 v 9.288 c 0,0.648 0.36,1.008 0.936,1.008 h 4.248 c 0.576,0 0.936,-0.36 0.936,-1.008 v -9.072 c 0,-4.824 -2.592,-8.568 -6.552,-10.152 z" transform="translate(0 203.54094509871283) translate(612.8791077002288 116.66642018864748) scale(1.9537129337449353) translate(-554.56156 -69.6)"></path>
      <path id="path92" style="font-style: normal; font-weight: 700; font-size: 72px; line-height: 1; font-family: Phenomena; font-variant-ligatures: none; text-align: center; text-anchor: middle; fill: rgb(251, 205, 100);" d="m 593.05119,120.72 c 6.48,0 11.016,-4.464 11.376,-11.16 0,-0.576 -0.36,-0.936 -0.936,-0.936 h -4.248 c -0.576,0 -0.936,0.288 -1.008,0.936 -0.216,3.168 -2.16,5.328 -5.112,5.328 -3.312,0 -5.256,-2.304 -5.256,-5.616 v -3.744 h 5.328 c 6.84,0 11.448,-4.536 11.448,-10.872 0,-6.624 -4.752,-11.448 -11.52,-11.376 -6.912,0 -11.376,4.752 -11.448,11.592 v 14.112 c 0,7.056 4.608,11.736 11.376,11.736 z m -5.184,-20.808 V 94.8 c 0,-3.456 1.872,-5.688 5.256,-5.688 3.312,0 5.328,2.232 5.328,5.688 0,3.024 -1.944,5.112 -5.256,5.112 z" transform="translate(0 203.54094509871283) translate(675.6199219807282 143.3916599204959) scale(1.9537129337449353) translate(-581.67519 -83.279205)"></path>
      <path id="path94" style="font-style: normal; font-weight: 700; font-size: 72px; line-height: 1; font-family: Phenomena; font-variant-ligatures: none; text-align: center; text-anchor: middle; fill: rgb(251, 205, 100);" d="m 611.10294,120 h 4.176 c 0.648,0 1.008,-0.36 1.008,-1.008 v -23.04 c 0,-3.888 2.448,-6.264 6.192,-6.264 h 2.592 c 0.576,0 0.936,-0.36 0.936,-0.936 v -3.888 c 0,-0.648 -0.36,-1.008 -0.936,-1.008 h -2.664 c -7.272,0 -12.312,4.824 -12.312,12.6 v 22.536 c 0,0.648 0.36,1.008 1.008,1.008 z" transform="translate(0 203.54094509871283) translate(740.9125197982505 144.5185517721153) scale(1.9537129337449353) translate(-610.09494 -83.856)"></path>
    </g>
    <g id="tagline" style="font-style:oblique;font-weight:normal;font-size:32px;line-height:1;font-family:'Fira Sans Condensed';font-variant-ligatures:none;text-align:center;text-anchor:middle"></g>
  </g>
</svg>
